<svg xmlns="http://www.w3.org/2000/svg" version="1.1" viewBox="0 0 34 42.5" x="0px" y="0px"><title>lamp</title><path d="M12.41 1.509c-0.248 0-0.462 0.161-0.529 0.398v0.002l-2.559 9.072c-0.047 0.165-0.014 0.343 0.090 0.48 0.103 0.137 0.264 0.215 0.437 0.215h6.604v19.719h-4.82c-0.308 0-0.547 0.24-0.547 0.547s0.241 0.549 0.547 0.549h10.734c0.308 0 0.549-0.241 0.549-0.549s-0.242-0.547-0.549-0.547h-4.818v-19.717h6.602c0.171 0 0.334-0.079 0.437-0.217s0.138-0.317 0.092-0.482l-0.143-0.508-2.416-8.564c-0.067-0.239-0.28-0.398-0.527-0.398zM12.824 2.604h8.354l2.25 7.977h-12.854l2.168-7.686z"/><text x="0" y="49" fill="#000000" font-size="5px" font-weight="bold" font-family="'Helvetica Neue', Helvetica, Arial-Unicode, Arial, Sans-serif">Created by shuai tawf</text><text x="0" y="54" fill="#000000" font-size="5px" font-weight="bold" font-family="'Helvetica Neue', Helvetica, Arial-Unicode, Arial, Sans-serif">from the Noun Project</text></svg>