<svg xmlns="http://www.w3.org/2000/svg" xmlns:xlink="http://www.w3.org/1999/xlink" version="1.1" x="0px" y="0px" viewBox="0 0 100 125" enable-background="new 0 0 100 100" xml:space="preserve"><path d="M70,12.666C69.668,11,68.333,10,66.667,10H33.333c-1.667,0-3,1-3.333,2.666l-10,40c0,0.999,0,2.002,0.667,2.666  c0.666,1.003,1.667,1.335,2.666,1.335h23.334v26.666H33.333c-2,0-3.333,1.335-3.333,3.334C30,88.665,31.333,90,33.333,90h33.333  C68.665,90,70,88.665,70,86.667c0-1.999-1.335-3.334-3.333-3.334H53.333V56.667h23.334c1.998,0,3.333-1.335,3.333-3.334  c0-0.667,0-0.999,0-1.334L70,12.666z M27.666,50L36,16.667h28.001L72.334,50H27.666z"/><text x="0" y="115" fill="#000000" font-size="5px" font-weight="bold" font-family="'Helvetica Neue', Helvetica, Arial-Unicode, Arial, Sans-serif">Created by Giuditta Valentina Gentile</text><text x="0" y="120" fill="#000000" font-size="5px" font-weight="bold" font-family="'Helvetica Neue', Helvetica, Arial-Unicode, Arial, Sans-serif">from the Noun Project</text></svg>