<svg xmlns="http://www.w3.org/2000/svg" xmlns:xlink="http://www.w3.org/1999/xlink" version="1.1" x="0px" y="0px" viewBox="0 0 100 125" style="enable-background:new 0 0 100 100;" xml:space="preserve"><style type="text/css">
	.st0{fill:none;stroke:#8CC63F;stroke-width:3;stroke-linecap:round;stroke-linejoin:round;stroke-miterlimit:10;}
	.st1{fill:#FFFFFF;}
	.st2{fill:none;}
</style><g><path d="M56.5,8.9c-0.2-0.5-0.8-0.8-1.3-0.8h-5.2h-5.3c-0.6,0-1.1,0.3-1.3,0.8L32.5,31c-0.5,1,0.2,2.1,1.3,2.1h7.4h8.8h8.6h7.5   c1.1,0,1.8-1.1,1.3-2.1L56.5,8.9z"/><path d="M60.9,87.5h-7c-0.8,0-1.5-0.7-1.5-1.5V36.1c0-0.8-0.7-1.5-1.5-1.5h-1.5c-0.8,0-1.5,0.7-1.5,1.5V86c0,0.8-0.7,1.5-1.5,1.5   h-7c-0.4,0-0.9,0.2-1.1,0.5c-1.5,1.8-0.2,3.9,1.6,3.9h20.5c1.8,0,3-2,1.6-3.9C61.7,87.7,61.3,87.5,60.9,87.5z"/></g><text x="0" y="115" fill="#000000" font-size="5px" font-weight="bold" font-family="'Helvetica Neue', Helvetica, Arial-Unicode, Arial, Sans-serif">Created by Dániel Aczél</text><text x="0" y="120" fill="#000000" font-size="5px" font-weight="bold" font-family="'Helvetica Neue', Helvetica, Arial-Unicode, Arial, Sans-serif">from the Noun Project</text></svg>