<svg xmlns="http://www.w3.org/2000/svg" xmlns:xlink="http://www.w3.org/1999/xlink" version="1.1" x="0px" y="0px" viewBox="0 0 1024 1280" style="enable-background:new 0 0 1024 1024;" xml:space="preserve"><g><g><g><path d="M164.5,713.3c16.5,16.5,33,33,49.5,49.5c26.2,26.2,52.4,52.4,78.6,78.6c6.1,6.1,12.1,12.1,18.2,18.2     c0-7.1,0-14.1,0-21.2c-14.3,14.3-29.4,28.1-43.1,43.1c-0.3,0.3-1.7,1.6-1.1,1.1c2-1.9-1.4,0.9-1.6,1c-1.9,1.4-1.1,0.7-0.2,0.3     c-1.3,0.6-2.6,0.8-4,1.2c-3.7,1.1,2.3,0.3-1.5,0.1c-0.9,0-1.8,0-2.7-0.1c3.3,0.2-0.9-0.3-1.4-0.4c-0.9-0.2-1.8-0.5-2.6-0.9     c1.4,0.6,1.4,0.5-0.2-0.3c-0.8-0.5-1.6-1-2.4-1.6c2.1,1.7-0.5-0.7-0.3-0.5c-0.1-0.1-0.2-0.2-0.3-0.3c-0.5-0.6-1.1-1.1-1.7-1.7     c-6.1-6.1-12.2-12.2-18.2-18.2c-20-20-40.1-40.1-60.1-60.1c-7.3-7.3-14.6-14.6-21.9-21.9c-1.5-1.5-3-3-4.5-4.5     c-0.1-0.1-0.2-0.2-0.3-0.3c1.1,1-2-2.1-0.8-0.7c1.3,1.4-1.5-2.2-1.3-2c-2.1-2.9,0.2,1.9-0.8-1.5c-0.4-1.3-0.8-2.6-1-4     c0.1,0.8,0,2.6,0.1-0.1c0-0.9,0-1.8,0.1-2.7c-0.3,1.7-0.3,1.7,0.1-0.1c0.3-1.1,0.6-2.2,1-3.3c0.4-1,0.3-0.9-0.1,0.4     c0.4-0.8,0.9-1.7,1.4-2.5c1.6-2.6-1,0.6,1.4-1.6c1.1-1.1,2.2-2.2,3.3-3.3c4.9-4.9,9.7-9.7,14.6-14.6c8.4-8.4,16.7-16.7,25.1-25.1     c5.7-5.7,5.7-15.5,0-21.2c-5.7-5.7-15.5-5.7-21.2,0c-7.7,7.7-15.3,15.3-23,23c-8.2,8.2-17.5,16-24.5,25.4     c-13,17.5-9.6,41.2,5.3,56.3c6,6,12,12,18,18c20.8,20.8,41.7,41.7,62.5,62.5c7.3,7.3,14.6,14.6,21.8,21.8     c1.2,1.2,2.4,2.4,3.6,3.6c10.6,10.1,24.7,14.3,39,11.6c16.1-3.1,27.1-17.3,38.1-28.3c8.8-8.8,17.6-17.6,26.4-26.4     c5.7-5.7,5.7-15.5,0-21.2c-16.5-16.5-33-33-49.5-49.5c-26.2-26.2-52.4-52.4-78.6-78.6c-6.1-6.1-12.1-12.1-18.2-18.2     c-5.7-5.7-15.5-5.7-21.2,0C158.8,697.8,158.8,707.5,164.5,713.3z"/></g></g><g><g><path d="M774.4,142.6c22.6,22.6,45.2,45.2,67.8,67.8c11.8,11.8,23.6,23.6,35.4,35.4c1.1,1.1,2.2,2.2,3.3,3.3     c0.2,0.2,0.3,0.3,0.5,0.5c1.9,1.7,0-0.6,1.3,1.5c0.5,0.8,1,1.6,1.4,2.5c-1.3-2.3,0.4,1.1,0.5,1.6c0.2,0.9,0.4,1.8,0.6,2.7     c-0.1-0.8,0-2.6-0.1,0.1c0,0.9,0,1.8-0.1,2.7c0-0.7,0.7-2.7-0.1,0.1c-0.2,0.9-0.5,1.8-0.7,2.7c-0.2,0.6-1.2,2.3-0.1,0.3     c-0.5,0.8-0.9,1.6-1.4,2.5c-1.3,2.1,0.3-0.1-0.8,0.9c-1.4,1.4-2.8,2.8-4.2,4.2c-13.2,13.2-26.3,26.3-39.5,39.5     c7.1,0,14.1,0,21.2,0c-16.5-16.5-33-33-49.5-49.5c-26.2-26.2-52.4-52.4-78.6-78.6c-6.1-6.1-12.1-12.1-18.2-18.2     c0,7.1,0,14.1,0,21.2c10-10,20.1-20.1,30.1-30.1c4.2-4.2,8.6-8.3,12.7-12.7c0.1-0.1,0.2-0.2,0.3-0.3c2.6-2.9-1.8,0.6,1.5-1.3     c0.6-0.3,3.8-2.1,1.4-1.1c1.7-0.7,3.5-1.2,5.3-1.5c-3.3,0.5,2.2,0.2,2.9,0.2c-2.6-0.1,0.4,0.1,1.4,0.4c0.9,0.2,1.8,0.5,2.6,0.9     c-1.4-0.6-1.4-0.5,0.2,0.3c0.8,0.5,1.6,1,2.4,1.6C773,141.3,773.1,141.4,774.4,142.6c5.9,5.6,15.4,5.8,21.2,0     c5.6-5.6,5.9-15.6,0-21.2c-11.1-10.5-26.8-15.1-41.7-11c-8.3,2.3-15.1,7.3-21.1,13.3c-10.3,10.3-20.6,20.6-30.9,30.9     c-3.3,3.3-6.6,6.6-9.9,9.9c-5.7,5.7-5.7,15.5,0,21.2c16.5,16.5,33,33,49.5,49.5c26.2,26.2,52.4,52.4,78.6,78.6     c6.1,6.1,12.1,12.1,18.2,18.2c5.7,5.7,15.5,5.7,21.2,0c12.2-12.2,24.4-24.4,36.6-36.6c7.4-7.4,14.5-14.7,17.4-25.2     c4.3-15.2-0.6-31.2-11.6-42.3c-25.5-25.9-51.4-51.4-77.1-77.1c-9.7-9.7-19.5-19.5-29.2-29.2c-5.7-5.7-15.5-5.7-21.2,0     C768.7,127.1,768.7,136.9,774.4,142.6z"/></g></g><g><g><path d="M204.5,857.6c-12.5,12.5-25.1,25.1-37.6,37.6c-5.7,5.7-5.7,15.5,0,21.2c5.7,5.7,15.5,5.7,21.2,0     c12.5-12.5,25.1-25.1,37.6-37.6c5.7-5.7,5.7-15.5,0-21.2C220,851.8,210.3,851.8,204.5,857.6L204.5,857.6z"/></g></g><g><g><path d="M128.8,857.1c12.5-12.5,25.1-25.1,37.6-37.6c5.7-5.7,5.7-15.5,0-21.2c-5.7-5.7-15.5-5.7-21.2,0     c-12.5,12.5-25.1,25.1-37.6,37.6c-5.7,5.7-5.7,15.5,0,21.2C113.3,862.8,123,862.8,128.8,857.1L128.8,857.1z"/></g></g><g><g><path d="M819.5,166.4c12.5-12.5,25.1-25.1,37.6-37.6c5.7-5.7,5.7-15.5,0-21.2c-5.7-5.7-15.5-5.7-21.2,0     c-12.5,12.5-25.1,25.1-37.6,37.6c-5.7,5.7-5.7,15.5,0,21.2C804,172.2,813.7,172.2,819.5,166.4L819.5,166.4z"/></g></g><g><g><path d="M895.2,166.9c-12.5,12.5-25.1,25.1-37.6,37.6c-5.7,5.7-5.7,15.5,0,21.2c5.7,5.7,15.5,5.7,21.2,0     c12.5-12.5,25.1-25.1,37.6-37.6c5.7-5.7,5.7-15.5,0-21.2C910.7,161.2,901,161.2,895.2,166.9L895.2,166.9z"/></g></g><g><g><path d="M692.1,185.7c16.5,16.5,33,33,49.5,49.5c26.2,26.2,52.4,52.4,78.6,78.6c6.1,6.1,12.1,12.1,18.2,18.2     c0-7.1,0-14.1,0-21.2c-4.7,4.7-9.4,9.4-14.1,14.1c-12.8,12.8-25.5,25.5-38.3,38.3C766.9,382.1,748,401,729,420     c-23.1,23.1-46.2,46.2-69.4,69.4c-25.2,25.2-50.4,50.4-75.6,75.6c-25.6,25.6-51.1,51.1-76.7,76.7c-23.8,23.8-47.7,47.7-71.5,71.5     c-20.1,20.1-40.1,40.1-60.2,60.2c-14.5,14.5-29,29-43.5,43.5c-6.8,6.8-14,13.5-20.5,20.5c-0.3,0.3-0.6,0.6-0.9,0.9     c7.1,0,14.1,0,21.2,0c-16.5-16.5-33-33-49.5-49.5c-26.2-26.2-52.4-52.4-78.6-78.6c-6.1-6.1-12.1-12.1-18.2-18.2     c0,7.1,0,14.1,0,21.2c4.7-4.7,9.4-9.4,14.1-14.1c12.8-12.8,25.5-25.5,38.3-38.3C257.1,641.9,276,623,295,604     c23.1-23.1,46.2-46.2,69.4-69.4c25.2-25.2,50.4-50.4,75.6-75.6c25.6-25.6,51.1-51.1,76.7-76.7c23.8-23.8,47.7-47.7,71.5-71.5     c20.1-20.1,40.1-40.1,60.2-60.2c14.5-14.5,29-29,43.5-43.5c6.8-6.8,13.8-13.6,20.5-20.5c0.3-0.3,0.6-0.6,0.9-0.9     c5.7-5.7,5.7-15.5,0-21.2c-5.7-5.7-15.5-5.7-21.2,0c-4.7,4.7-9.4,9.4-14.1,14.1c-12.8,12.8-25.5,25.5-38.3,38.3     c-18.9,18.9-37.9,37.9-56.8,56.8c-23.1,23.1-46.2,46.2-69.4,69.4c-25.2,25.2-50.4,50.4-75.6,75.6c-25.6,25.6-51.1,51.1-76.7,76.7     c-23.8,23.8-47.7,47.7-71.5,71.5c-20.1,20.1-40.1,40.1-60.2,60.2c-14.5,14.5-29,29-43.5,43.5c-6.8,6.8-13.8,13.6-20.5,20.5     c-0.3,0.3-0.6,0.6-0.9,0.9c-5.7,5.7-5.7,15.5,0,21.2c16.5,16.5,33,33,49.5,49.5c26.2,26.2,52.4,52.4,78.6,78.6     c6.1,6.1,12.1,12.1,18.2,18.2c5.7,5.7,15.5,5.7,21.2,0c4.7-4.7,9.4-9.4,14.1-14.1c12.8-12.8,25.5-25.5,38.3-38.3     c18.9-18.9,37.9-37.9,56.8-56.8c23.1-23.1,46.2-46.2,69.4-69.4c25.2-25.2,50.4-50.4,75.6-75.6c25.6-25.6,51.1-51.1,76.7-76.7     c23.8-23.8,47.7-47.7,71.5-71.5c20.1-20.1,40.1-40.1,60.2-60.2c14.5-14.5,29-29,43.5-43.5c6.8-6.8,13.8-13.6,20.5-20.5     c0.3-0.3,0.6-0.6,0.9-0.9c5.7-5.7,5.7-15.5,0-21.2c-16.5-16.5-33-33-49.5-49.5c-26.2-26.2-52.4-52.4-78.6-78.6     c-6.1-6.1-12.1-12.1-18.2-18.2c-5.7-5.7-15.5-5.7-21.2,0C686.3,170.3,686.3,180,692.1,185.7z"/></g></g></g><text x="0" y="1039" fill="#000000" font-size="5px" font-weight="bold" font-family="'Helvetica Neue', Helvetica, Arial-Unicode, Arial, Sans-serif">Created by shashank singh</text><text x="0" y="1044" fill="#000000" font-size="5px" font-weight="bold" font-family="'Helvetica Neue', Helvetica, Arial-Unicode, Arial, Sans-serif">from the Noun Project</text></svg>