<?xml version="1.0" encoding="UTF-8" standalone="no"?>
<svg
   xmlns:dc="http://purl.org/dc/elements/1.1/"
   xmlns:cc="http://creativecommons.org/ns#"
   xmlns:rdf="http://www.w3.org/1999/02/22-rdf-syntax-ns#"
   xmlns:svg="http://www.w3.org/2000/svg"
   xmlns="http://www.w3.org/2000/svg"
   id="svg105074"
   viewBox="0 0 100 100"
   height="100"
   width="100"
   version="1.1">
  <metadata
     id="metadata105080">
    <rdf:RDF>
      <cc:Work
         rdf:about="">
        <dc:format>image/svg+xml</dc:format>
        <dc:type
           rdf:resource="http://purl.org/dc/dcmitype/StillImage" />
        <dc:title></dc:title>
      </cc:Work>
    </rdf:RDF>
  </metadata>
  <defs
    id="defs105078" >
    <radialGradient
       id="glowGradient"
       cx="50%"
       cy="50%"
       r="50%"
       fx="50%"
       fy="50%">
      <stop
         offset="0%"
         style="stop-color:var(--color-outer);stop-opacity:0"
         id="stop80186" />
      <stop
         offset="40%"
         style="stop-color:var(--color-inner);stop-opacity:1"
         id="stop80188" />
      <stop
         offset="50%"
         style="stop-color:var(--color-inner);stop-opacity:1"
         id="stop80190" />
      <stop
         offset="100%"
         style="stop-color:var(--color-outer);stop-opacity:0"
         id="stop80192" />
    </radialGradient>
  </defs>
  <path
     id="path105072"
     class="light-on"
     d="m 59,49 c 0,4.97 -4.03,9 -9,9 -4.97,0 -9,-4.03 -9,-9 V 48.03 C 41,47.76 41.11,47.5 41.3,47.3 41.5,47.11 41.76,47 42.03,47 H 58 c 0.25,0 0.5,0.11 0.7,0.3 0.19,0.2 0.3,0.45 0.3,0.7 v 1 m -16,0 c 0,3.86 3.14,7 7,7 3.86,0 7,-3.14 7,-7 H 43 m 15,-4 v 1 H 42 v -1 c 0,-0.27 0.1,-0.5 0.29,-0.71 C 42.5,44.1 42.73,44 43,44 h 5 v -2 h 4 v 2 h 5 c 0.25,0 0.5,0.11 0.7,0.3 0.19,0.2 0.3,0.45 0.3,0.7 z" />
  <rect
     y="0"
     x="0"
     height="100"
     width="100"
     id="rect105082"
     style="fill:url(#glowGradient)" />
</svg>
