<svg xmlns="http://www.w3.org/2000/svg" xmlns:xlink="http://www.w3.org/1999/xlink" version="1.1" x="0px" y="0px" viewBox="0 0 70 87.5" enable-background="new 0 0 70 70" xml:space="preserve"><g><path d="M66.2438,7.5214c-0.58-0.58-1.5299-0.58-2.11,0l-2.79,2.79l-1.64-1.63l2.8-2.79c0.58-0.58,0.58-1.53,0-2.11   c-0.58-0.58-1.53-0.58-2.12,0l-2.79,2.79l-0.17-0.17c-1.59-1.58-4.17-1.59-5.75,0c-0.37,0.37-6.92,6.91-45.3,45.24   c-1.59,1.59-1.59,4.16,0,5.75l0.17,0.17l-2.79,2.79c-0.29,0.28-0.44,0.65-0.44,1.05c0,0.4,0.15,0.78,0.44,1.06   c0.58,0.58,1.53,0.58,2.11,0l2.79-2.79l1.64,1.63l-2.8,2.79c-1.4,1.4,0.74,3.49,2.12,2.11l2.79-2.79l0.18,0.17   c0.79,0.79,1.83,1.19,2.87,1.19c1.04,0,2.08-0.4,2.87-1.19c31.5-31.46,43.7399-43.68,45.3-45.25c1.5801-1.58,1.5801-4.16,0-5.74   l-0.1699-0.17l2.7899-2.79C66.8337,9.0514,66.8337,8.1114,66.2438,7.5214z M60.9438,4.3314c0.27-0.28,0.73-0.28,1.01,0   c0.2799,0.28,0.2799,0.73,0,1.01l-2.8,2.79l-1.01-1.01L60.9438,4.3314z M5.3138,61.9115c-0.28,0.28-0.73,0.28-1.01,0   c-0.14-0.14-0.21-0.32-0.21-0.51s0.07-0.37,0.21-0.5l2.79-2.79l1.01,1.01L5.3138,61.9115z M9.0638,65.6515   c-0.28,0.28-0.74,0.27-1.02,0c-0.27-0.28-0.27-0.73,0-1.01l2.8-2.79l1.01,1.0099L9.0638,65.6515z M17.2638,62.5214   c-1,1-2.63,1-3.63,0l-6.2-6.19c-1-1-1-2.63,0-3.63l1.79-1.79c3.44,3.43,6.39,6.39,9.83,9.8199L17.2638,62.5214z M20.1138,59.6714   c-0.17-0.16-9.68-9.68-9.82-9.8199l39.59-39.54c0.16,0.16,9.68,9.67,9.82,9.82L20.1138,59.6714z M62.5637,17.2714l-1.7999,1.8   c-3.43-3.44-6.38-6.39-9.82-9.82l1.79-1.79c1-1,2.62-1,3.63,0l6.2,6.19c0.48,0.49,0.75,1.13,0.75,1.81   C63.3137,16.1515,63.0437,16.7914,62.5637,17.2714z M65.6938,9.0814l-2.79,2.79l-1.01-1.01l2.79-2.79c0.28-0.28,0.73-0.28,1.01,0   C65.9737,8.3515,65.9737,8.8014,65.6938,9.0814z"/></g><text x="0" y="85" fill="#000000" font-size="5px" font-weight="bold" font-family="'Helvetica Neue', Helvetica, Arial-Unicode, Arial, Sans-serif">Created by Vectors Point</text><text x="0" y="90" fill="#000000" font-size="5px" font-weight="bold" font-family="'Helvetica Neue', Helvetica, Arial-Unicode, Arial, Sans-serif">from the Noun Project</text></svg>