<?xml version="1.0" encoding="iso-8859-1"?>
<!-- Generator: Adobe Illustrator 18.0.0, SVG Export Plug-In . SVG Version: 6.00 Build 0)  -->
<!DOCTYPE svg PUBLIC "-//W3C//DTD SVG 1.1//EN" "http://www.w3.org/Graphics/SVG/1.1/DTD/svg11.dtd">
<svg version="1.1" id="Capa_1" xmlns="http://www.w3.org/2000/svg" xmlns:xlink="http://www.w3.org/1999/xlink" x="0px" y="0px"
	 viewBox="0 0 239.543 239.543" style="enable-background:new 0 0 239.543 239.543;" xml:space="preserve">
<g>
	<path d="M172.184,56.136H67.358c-4.142,0-7.5,3.358-7.5,7.5c0,33.036,26.877,59.913,59.913,59.913s59.913-26.877,59.913-59.913
		C179.684,59.494,176.326,56.136,172.184,56.136z M119.771,108.549c-22.21,0-40.707-16.205-44.287-37.413h88.574
		C160.479,92.344,141.982,108.549,119.771,108.549z"/>
	<path d="M49.553,63.636c0-4.142-3.358-7.5-7.5-7.5H7.5c-4.142,0-7.5,3.358-7.5,7.5c0,4.142,3.358,7.5,7.5,7.5h34.553
		C46.195,71.136,49.553,67.778,49.553,63.636z"/>
	<path d="M232.043,56.136H197.49c-4.142,0-7.5,3.358-7.5,7.5c0,4.142,3.358,7.5,7.5,7.5h34.553c4.142,0,7.5-3.358,7.5-7.5
		C239.543,59.494,236.185,56.136,232.043,56.136z"/>
	<path d="M180.03,113.288c-2.93-2.929-7.677-2.928-10.607,0c-2.929,2.929-2.928,7.678,0.001,10.607l24.434,24.432
		c1.465,1.464,3.384,2.196,5.303,2.196c1.919,0,3.839-0.732,5.304-2.197c2.929-2.929,2.928-7.678-0.001-10.607L180.03,113.288z"/>
	<path d="M59.514,113.288L35.08,137.72c-2.929,2.929-2.929,7.678,0,10.607c1.465,1.464,3.384,2.197,5.304,2.197
		c1.919,0,3.839-0.732,5.303-2.196l24.434-24.432c2.929-2.929,2.929-7.678,0-10.607C67.191,110.36,62.443,110.36,59.514,113.288z"/>
	<path d="M119.771,133.854c-4.142,0-7.5,3.358-7.5,7.5v34.553c0,4.142,3.358,7.5,7.5,7.5s7.5-3.358,7.5-7.5v-34.553
		C127.271,137.212,123.914,133.854,119.771,133.854z"/>
</g>
<g>
</g>
<g>
</g>
<g>
</g>
<g>
</g>
<g>
</g>
<g>
</g>
<g>
</g>
<g>
</g>
<g>
</g>
<g>
</g>
<g>
</g>
<g>
</g>
<g>
</g>
<g>
</g>
<g>
</g>
</svg>
