<?xml version="1.0" encoding="iso-8859-1"?>
<!-- Generator: Adobe Illustrator 19.0.0, SVG Export Plug-In . SVG Version: 6.00 Build 0)  -->
<svg version="1.1" id="Capa_1" xmlns="http://www.w3.org/2000/svg" xmlns:xlink="http://www.w3.org/1999/xlink" x="0px" y="0px"
	 viewBox="0 0 512 512" style="enable-background:new 0 0 512 512;" xml:space="preserve">
<g>
	<g>
		<path d="M371.049,236.707l35.523-70.146c1.945-3.844,1.796-8.35-0.4-12.055c-2.195-3.705-6.076-6-10.38-6.139l-34.417-1.114
			c-0.082-0.003-0.166-0.004-0.248-0.004c-4.041,0-7.382,3.209-7.513,7.279c-0.134,4.152,3.122,7.627,7.275,7.761l30.482,0.986
			l-36.976,73.015c-0.002,0.003-0.004,0.006-0.005,0.009l-67.375,133.043c-0.002,0.005-0.004,0.01-0.006,0.014l-36.974,73.01
			l-65.788-83.794l80.602-159.162l20.044-39.581l30.192,0.977c4.147,0.178,7.627-3.123,7.761-7.275s-3.123-7.627-7.275-7.761
			l-33.312-1.077L162.609,84.1V7.522c0-4.155-3.367-7.522-7.522-7.522h-44.329c-4.155,0-7.522,3.367-7.522,7.522v57.53
			L1.565,265.813c-3.123,6.169-0.645,13.726,5.521,16.848l95.825,48.528c3.708,1.875,8.232,0.393,10.11-3.313
			c1.877-3.706,0.394-8.232-3.313-10.109L16.12,270.371l87.115-172.02v132.385c0,6.913,5.624,12.537,12.537,12.537h34.3
			c6.913,0,12.537-5.624,12.537-12.537V100.964l107.631,54.507L172.06,349.342l-20.631-10.448c-3.708-1.876-8.233-0.393-10.11,3.313
			s-0.394,8.232,3.313,10.11l25.854,13.093l70.149,89.348c2.4,3.056,6.01,4.794,9.841,4.794c0.415,0,0.833-0.021,1.253-0.063
			c4.286-0.423,8.006-2.969,9.952-6.811l35.516-70.132c9.806,3.891,20.004,5.754,30.086,5.754c29.98,0,58.92-16.467,73.367-44.992
			C419.95,305.189,406.572,258.97,371.049,236.707z M147.565,228.229h-29.285V15.044h29.285V228.229z M387.227,336.51
			c-15.554,30.711-51.673,44.306-83.2,32.545l60.199-118.873C392.362,268.636,402.778,305.799,387.227,336.51z"/>
	</g>
</g>
<g>
	<g>
		<path d="M509.583,201.231c-2.938-2.937-7.7-2.937-10.639,0c-14.238,14.238-46.108,10.733-57.188,8.182
			c-4.045-0.941-8.083,1.579-9.023,5.624c-0.941,4.047,1.576,8.09,5.622,9.031c0.939,0.219,12.086,2.736,25.978,2.736
			c15.026,0,33.262-2.946,45.25-14.934C512.519,208.932,512.519,204.17,509.583,201.231z"/>
	</g>
</g>
<g>
	<g>
		<path d="M333.799,441.341c-3.189-2.657-7.926-2.227-10.586,0.959c-2.661,3.186-2.235,7.929,0.948,10.593
			c8.718,7.298,30.737,30.605,27.968,50.549c-0.571,4.115,2.302,7.914,6.416,8.485c0.351,0.049,0.699,0.073,1.044,0.073
			c3.696,0,6.918-2.725,7.441-6.489C371.518,473.194,335.341,442.627,333.799,441.341z"/>
	</g>
</g>
<g>
	<g>
		<path d="M433.553,439.091l-17.27-28.679c-2.143-3.559-6.765-4.708-10.324-2.563c-3.558,2.143-4.706,6.765-2.563,10.324
			l17.269,28.678c1.411,2.345,3.899,3.643,6.451,3.643c1.321,0,2.659-0.348,3.874-1.079
			C434.549,447.272,435.696,442.65,433.553,439.091z"/>
	</g>
</g>
<g>
	<g>
		<path d="M499.339,298.583c-0.008,0-0.016,0-0.024,0l-32.305,0.104c-4.154,0.014-7.511,3.392-7.498,7.547
			c0.014,4.146,3.378,7.498,7.522,7.498c0.008,0,0.016,0,0.024,0l32.305-0.104c4.154-0.014,7.511-3.392,7.498-7.547
			C506.847,301.935,503.484,298.583,499.339,298.583z"/>
	</g>
</g>
<g>
	<g>
		<path d="M500.911,386.861l-49.102-25.474c-3.688-1.915-8.228-0.475-10.141,3.212c-1.913,3.688-0.475,8.229,3.213,10.141
			l49.102,25.474c1.108,0.575,2.291,0.847,3.458,0.847c2.719,0,5.344-1.48,6.683-4.06
			C506.036,393.315,504.599,388.774,500.911,386.861z"/>
	</g>
</g>
<g>
</g>
<g>
</g>
<g>
</g>
<g>
</g>
<g>
</g>
<g>
</g>
<g>
</g>
<g>
</g>
<g>
</g>
<g>
</g>
<g>
</g>
<g>
</g>
<g>
</g>
<g>
</g>
<g>
</g>
</svg>
