<svg height="480pt" viewBox="0 -56 480 480" width="480pt" xmlns="http://www.w3.org/2000/svg"><path d="m456 128h-432c-13.253906 0-24 10.746094-24 24v64c0 13.253906 10.746094 24 24 24h432c13.253906 0 24-10.746094 24-24v-64c0-13.253906-10.746094-24-24-24zm-440 88v-64c0-4.417969 3.582031-8 8-8h24v80h-24c-4.417969 0-8-3.582031-8-8zm48-72h352v80h-352zm400 72c0 4.417969-3.582031 8-8 8h-24v-80h24c4.417969 0 8 3.582031 8 8zm0 0"/><path d="m232 0h16v72h-16zm0 0"/><path d="m136.824219 11.550781 14.339843-7.09375 32.011719 64.722657-14.34375 7.09375zm0 0"/><path d="m42.792969 38.074219 10.414062-12.148438 56.003907 48.003907-10.414063 12.144531zm0 0"/><path d="m296.828125 69.183594 32-64.730469 14.34375 7.089844-32 64.730469zm0 0"/><path d="m370.789062 73.925781 56.003907-48.003906 10.414062 12.148437-56.003906 48.003907zm0 0"/><path d="m232 296h16v72h-16zm0 0"/><path d="m296.84375 299.582031 14.308594-7.15625 32 64-14.3125 7.15625zm0 0"/><path d="m370.789062 294.070312 10.414063-12.148437 56.003906 48.003906-10.414062 12.148438zm0 0"/><path d="m136.84375 356.421875 32-63.996094 14.3125 7.15625-32 63.996094zm0 0"/><path d="m42.792969 329.929688 56.003906-48 10.414063 12.148437-56.003907 48zm0 0"/><path d="m80 160h16v16h-16zm0 0"/><path d="m112 160h112v16h-112zm0 0"/></svg>